<svg xmlns="http://www.w3.org/2000/svg" xml:space="preserve" width="499.99268" height="500" viewBox="0 0 499.99267 500"><path d="M0 0a5.467 5.467 0 0 0-5.467-5.467H-62.87A5.467 5.467 0 0 0-68.337 0v57.404a5.467 5.467 0 0 0 5.467 5.467h57.403A5.467 5.467 0 0 0 0 57.404Z" style="fill:#fae100;fill-opacity:1;fill-rule:nonzero;stroke:none" transform="matrix(7.31657 0 0 -7.31657 499.993 460)"/><path d="M0 0h-22.209a.598.598 0 0 1-.598-.598v-22.219c0-.33.267-.598.598-.598l9.55-.003c-.973-4.521-3.724-8.741-7.46-11.396a.597.597 0 0 1-.074-.913l6.457-6.408a.596.596 0 0 1 .755-.072C-4.479-36.503.598-27.007.598-16.805V-.598C.598-.268.331 0 0 0" style="fill:#fae100;fill-opacity:1;fill-rule:nonzero;stroke:none" transform="matrix(7.31657 0 0 -7.31657 331.243 121.373)"/><path d="M0 0h-22.209a.598.598 0 0 1-.598-.598v-22.218c0-.331.267-.599.598-.599l9.55-.003c-.973-4.521-3.724-8.742-7.46-11.397a.594.594 0 0 1-.249-.437.593.593 0 0 1 .175-.474l6.457-6.409a.606.606 0 0 1 .755-.073C-4.479-36.502.598-27.007.598-16.805V-.598C.598-.268.331 0 0 0" style="fill:#fae000;fill-opacity:1;fill-rule:nonzero;stroke:none" transform="matrix(7.31657 0 0 -7.31657 331.243 120.112)"/><path d="M0 0h-22.209a.598.598 0 0 1-.598-.598v-22.218c0-.33.267-.599.598-.599l9.55-.002c-.973-4.522-3.724-8.742-7.46-11.397a.596.596 0 0 1-.249-.439.596.596 0 0 1 .175-.474l6.457-6.408a.596.596 0 0 1 .755-.072C-4.479-36.503.598-27.006.598-16.805V-.598C.598-.268.331 0 0 0" style="fill:#f9df01;fill-opacity:1;fill-rule:nonzero;stroke:none" transform="matrix(7.31657 0 0 -7.31657 331.243 118.851)"/><path d="M0 0h-22.209a.598.598 0 0 1-.598-.598v-22.219c0-.33.267-.598.598-.598l9.55-.003c-.973-4.521-3.724-8.741-7.46-11.396a.597.597 0 0 1-.074-.913l6.457-6.409a.599.599 0 0 1 .755-.071C-4.479-36.503.598-27.007.598-16.805V-.598C.598-.268.331 0 0 0" style="fill:#f9de01;fill-opacity:1;fill-rule:nonzero;stroke:none" transform="matrix(7.31657 0 0 -7.31657 331.243 117.586)"/><path d="M0 0h-22.209a.598.598 0 0 1-.598-.598v-22.219c0-.33.267-.598.598-.598l9.55-.003c-.973-4.521-3.724-8.742-7.46-11.397a.595.595 0 0 1-.074-.911l6.457-6.409a.596.596 0 0 1 .755-.073C-4.479-36.502.598-27.007.598-16.805V-.598C.598-.268.331 0 0 0" style="fill:#f8dd02;fill-opacity:1;fill-rule:nonzero;stroke:none" transform="matrix(7.31657 0 0 -7.31657 331.243 116.325)"/><path d="M0 0h-22.209a.598.598 0 0 1-.598-.598v-22.219c0-.33.267-.598.598-.598l9.55-.003c-.973-4.521-3.724-8.741-7.46-11.396a.597.597 0 0 1-.074-.913l6.457-6.408a.596.596 0 0 1 .755-.072C-4.479-36.503.598-27.007.598-16.805V-.598C.598-.268.331 0 0 0" style="fill:#f8dc02;fill-opacity:1;fill-rule:nonzero;stroke:none" transform="matrix(7.31657 0 0 -7.31657 331.243 115.064)"/><path d="M0 0h-22.209a.598.598 0 0 1-.598-.598v-22.218c0-.331.267-.599.598-.599l9.55-.003c-.973-4.521-3.724-8.741-7.46-11.397a.594.594 0 0 1-.249-.438.592.592 0 0 1 .175-.473l6.457-6.409a.606.606 0 0 1 .755-.073C-4.479-36.502.598-27.007.598-16.805V-.598C.598-.268.331 0 0 0" style="fill:#f7dc03;fill-opacity:1;fill-rule:nonzero;stroke:none" transform="matrix(7.31657 0 0 -7.31657 331.243 113.803)"/><path d="M0 0h-22.209a.598.598 0 0 1-.598-.598v-22.218c0-.33.267-.599.598-.599l9.55-.002c-.973-4.522-3.724-8.742-7.46-11.397a.596.596 0 0 1-.249-.439.596.596 0 0 1 .175-.474l6.457-6.408a.596.596 0 0 1 .755-.072C-4.479-36.503.598-27.006.598-16.805V-.598C.598-.268.331 0 0 0" style="fill:#f7db03;fill-opacity:1;fill-rule:nonzero;stroke:none" transform="matrix(7.31657 0 0 -7.31657 331.243 112.542)"/><path d="M0 0h-22.209a.598.598 0 0 1-.598-.598v-22.219c0-.33.267-.598.598-.598l9.55-.003c-.973-4.521-3.724-8.742-7.46-11.396a.597.597 0 0 1-.074-.913l6.457-6.409a.599.599 0 0 1 .755-.071C-4.479-36.503.598-27.007.598-16.805V-.598C.598-.268.331 0 0 0" style="fill:#f6da04;fill-opacity:1;fill-rule:nonzero;stroke:none" transform="matrix(7.31657 0 0 -7.31657 331.243 111.277)"/><path d="M0 0h-22.209a.598.598 0 0 1-.598-.598v-22.219c0-.33.267-.598.598-.598l9.55-.003c-.973-4.521-3.724-8.742-7.46-11.397a.595.595 0 0 1-.074-.911l6.457-6.409a.596.596 0 0 1 .755-.073C-4.479-36.502.598-27.007.598-16.805V-.598C.598-.268.331 0 0 0" style="fill:#f6d904;fill-opacity:1;fill-rule:nonzero;stroke:none" transform="matrix(7.31657 0 0 -7.31657 331.243 110.016)"/><path d="M0 0h-22.209a.598.598 0 0 1-.598-.598v-22.219c0-.33.267-.598.598-.598l9.55-.003c-.973-4.521-3.724-8.741-7.46-11.396a.597.597 0 0 1-.074-.913l6.457-6.408a.596.596 0 0 1 .755-.072C-4.479-36.503.598-27.007.598-16.805V-.598C.598-.268.331 0 0 0" style="fill:#f5d805;fill-opacity:1;fill-rule:nonzero;stroke:none" transform="matrix(7.31657 0 0 -7.31657 331.243 108.755)"/><path d="M0 0h-22.209a.598.598 0 0 1-.598-.598v-22.218c0-.331.267-.599.598-.599l9.55-.003c-.973-4.521-3.724-8.741-7.46-11.397a.594.594 0 0 1-.249-.438.592.592 0 0 1 .175-.473l6.457-6.409a.606.606 0 0 1 .755-.073C-4.479-36.502.598-27.007.598-16.805V-.598C.598-.268.331 0 0 0" style="fill:#f5d705;fill-opacity:1;fill-rule:nonzero;stroke:none" transform="matrix(7.31657 0 0 -7.31657 331.243 107.494)"/><path d="M0 0h-22.209a.256.256 0 0 1-.257-.256v-22.219c0-.141.115-.256.257-.256l9.968-.003c-.908-4.759-3.763-9.233-7.68-12.017a.262.262 0 0 1-.107-.188.261.261 0 0 1 .075-.203l6.457-6.408a.256.256 0 0 1 .324-.032C-4.764-35.941.256-26.551.256-16.463V-.256A.255.255 0 0 1 0 0" style="fill:#cdaa14;fill-opacity:1;fill-rule:nonzero;stroke:none" transform="matrix(7.31657 0 0 -7.31657 331.243 109.994)"/><path d="M0 0v16.207h-22.209V-6.012l10.275-.003c-.98-5.656-4.363-10.011-7.838-12.483l6.457-6.408C-5.286-19.52 0-10.395 0 0" style="fill:#fff;fill-opacity:1;fill-rule:nonzero;stroke:none" transform="matrix(7.31657 0 0 -7.31657 331.243 230.446)"/></svg>